<svg width="33" height="32" viewBox="0 0 33 32" fill="none" xmlns="http://www.w3.org/2000/svg">
<rect x="0.599976" width="32" height="32" rx="16" fill="black" fill-opacity="0.6"/>
<path d="M15.7669 15.8668C15.7669 16.2534 16.0803 16.5668 16.4669 16.5668C16.8535 16.5668 17.1669 16.2534 17.1669 15.8668C17.1669 15.4802 16.8535 15.1668 16.4669 15.1668C16.0803 15.1668 15.7669 15.4802 15.7669 15.8668Z" fill="white" stroke="white" stroke-width="1.16667" stroke-linecap="round" stroke-linejoin="round"/>
<path d="M21.5999 15.8668C21.5999 16.2534 21.9133 16.5668 22.2999 16.5668C22.6865 16.5668 22.9999 16.2534 22.9999 15.8668C22.9999 15.4802 22.6865 15.1668 22.2999 15.1668C21.9133 15.1668 21.5999 15.4802 21.5999 15.8668Z" fill="white" stroke="white" stroke-width="1.16667" stroke-linecap="round" stroke-linejoin="round"/>
<path d="M9.9334 15.8668C9.9334 16.2534 10.2468 16.5668 10.6334 16.5668C11.02 16.5668 11.3334 16.2534 11.3334 15.8668C11.3334 15.4802 11.02 15.1668 10.6334 15.1668C10.2468 15.1668 9.9334 15.4802 9.9334 15.8668Z" fill="white" stroke="white" stroke-width="1.16667" stroke-linecap="round" stroke-linejoin="round"/>
</svg>
